<svg viewBox="0 0 256 256" fill="none" xmlns="http://www.w3.org/2000/svg">
    <path d="M128 209.58C185.438 209.58 232 191.671 232 169.58C232 147.489 185.438 129.58 128 129.58C70.5624 129.58 24 147.489 24 169.58C24 191.671 70.5624 209.58 128 209.58Z"
          stroke="#006D41" stroke-width="4" stroke-miterlimit="10"/>
    <path d="M103.19 178.31C98.4599 189.07 91.9599 198.51 84.1899 206.43" stroke="#006D41" stroke-width="4"
          stroke-miterlimit="10"/>
    <path d="M97.1299 90.63C108.7 109.43 113.56 132.03 110.15 154.44" stroke="#006D41" stroke-width="4"
          stroke-miterlimit="10"/>
    <path d="M24.1602 46C34.4402 46.82 44.7602 49.34 54.7302 53.73C65.3502 58.4 74.6702 64.78 82.5302 72.42"
          stroke="#006D41" stroke-width="4" stroke-miterlimit="10"/>
    <path d="M24.1401 63.11C35.7401 64.23 47.0801 67.96 57.2201 74.18" stroke="#006D41" stroke-width="4"
          stroke-miterlimit="10"/>
    <path d="M64.9801 200.86C64.6101 201.16 64.2301 201.45 63.8501 201.74" stroke="#006D41" stroke-width="4"
          stroke-miterlimit="10"/>
    <path d="M74.7402 191.62C71.8102 194.92 68.5602 198.02 64.9902 200.87" stroke="#006D41" stroke-width="4"
          stroke-miterlimit="10"/>
    <path d="M77.2798 91.94C95.1598 114.37 98.5898 143.66 88.8398 168.58" stroke="#006D41" stroke-width="4"
          stroke-miterlimit="10"/>
    <path d="M152.81 178.31C157.54 189.07 164.04 198.51 171.81 206.43" stroke="#006D41" stroke-width="4"
          stroke-miterlimit="10"/>
    <path d="M158.87 90.63C147.3 109.43 142.44 132.03 145.85 154.44" stroke="#006D41" stroke-width="4"
          stroke-miterlimit="10"/>
    <path d="M231.84 46C221.56 46.82 211.24 49.34 201.27 53.73C190.65 58.4 181.33 64.78 173.47 72.42" stroke="#006D41"
          stroke-width="4" stroke-miterlimit="10"/>
    <path d="M231.86 63.11C220.26 64.23 208.92 67.96 198.78 74.18" stroke="#006D41" stroke-width="4"
          stroke-miterlimit="10"/>
    <path d="M191.02 200.86C191.39 201.16 191.77 201.45 192.15 201.74" stroke="#006D41" stroke-width="4"
          stroke-miterlimit="10"/>
    <path d="M181.26 191.62C184.19 194.92 187.44 198.02 191.01 200.87" stroke="#006D41" stroke-width="4"
          stroke-miterlimit="10"/>
    <path d="M178.72 91.94C160.84 114.37 157.41 143.66 167.16 168.58" stroke="#006D41" stroke-width="4"
          stroke-miterlimit="10"/>
</svg>
